<svg viewBox="0 0 150 150" width="40px" color="text" xmlns="http://www.w3.org/2000/svg" class="sc-bdfBQB cJKRCN"><svg width="150" height="150" viewBox="0 0 150 150" fill="none" xmlns="http://www.w3.org/2000/svg"><mask id="mask0_598_6962" mask-type="alpha" maskUnits="userSpaceOnUse" x="16" y="16" width="118" height="118"><path d="M134 97.2548C134 98.6576 134 100.06 133.992 101.465C133.986 102.646 133.971 103.828 133.938 105.009C133.868 107.581 133.714 110.179 133.251 112.722C132.783 115.306 132.018 117.711 130.806 120.059C129.62 122.365 128.069 124.475 126.218 126.305C124.367 128.135 122.23 129.67 119.898 130.843C117.525 132.038 115.094 132.796 112.48 133.26C109.906 133.717 107.279 133.87 104.676 133.939C99.6703 134 98.2513 134 96.8323 134H69.4699H53.1698C47.7159 133.984 46.521 133.972 45.3262 133.939C42.7226 133.87 40.0964 133.717 37.5216 133.26C34.9078 132.796 32.477 132.038 30.1037 130.843C27.7695 129.67 25.6349 128.135 23.784 126.305C21.9331 124.475 20.3825 122.365 19.1938 120.059C17.9846 117.711 17.2195 115.306 16.7486 112.722C16.2859 110.179 16.1337 107.581 16.0638 105.009C16.0308 103.828 16.0165 102.646 16.0103 101.465C16 100.06 16 98.6576 16 97.2548V81.1409V68.8591V52.7452C16 51.3424 16 49.9376 16.0103 48.5368C16.0165 47.3536 16.0308 46.1724 16.0638 44.9912C16.1337 42.4174 16.2859 39.8212 16.7486 37.2758C17.2195 34.6918 17.9846 32.2887 19.1938 29.9406C20.3825 27.6331 21.9331 25.5228 23.784 23.6951C25.6349 21.8633 27.7695 20.3304 30.1037 19.1573C32.477 17.9619 34.9078 17.2036 37.5216 16.74C40.0964 16.2826 42.7226 16.1301 45.3262 16.061C50.3318 16 51.7508 16 53.1698 16H69.4699H95.6683L80.5301 16.0061L96.8323 16C102.284 16.0163 103.479 16.0285 104.676 16.061C107.279 16.1301 109.906 16.2826 112.48 16.74C115.094 17.2036 117.525 17.9619 119.898 19.1573C122.23 20.3304 124.367 21.8633 126.218 23.6951C128.069 25.5228 129.62 27.6331 130.806 29.9406C132.018 32.2887 132.783 34.6918 133.251 37.2758C133.714 39.8212 133.868 42.4174 133.938 44.9912C133.971 46.1724 133.986 47.3536 133.992 48.5368C134 49.9376 134 51.3424 134 52.7452V68.8591V81.1409V97.2548Z" fill="white"></path></mask><g mask="url(#mask0_598_6962)"><path d="M134 16H16V134H134V16Z" fill="white"></path><path d="M74.9018 28.916L35.8333 51.556V96.8359L74.9018 119.476L113.97 96.8359V51.556L74.9018 28.916ZM102.272 90.1771L74.9018 106.158L47.4214 90.1771V58.3258L74.9018 42.3446L102.382 58.3258V90.1771H102.272Z" fill="#002D74"></path><g mix-blend-mode="multiply"><path mix-blend-mode="multiply" d="M74.9018 42.3446V28.916L35.8333 51.556V96.8359L74.9018 119.476V106.158L47.4214 90.1771V58.3258L74.9018 42.3446Z" fill="url(#paint0_linear_598_6962)"></path></g><g mix-blend-mode="multiply"><path mix-blend-mode="multiply" d="M74.9023 106.158V119.587L113.971 96.9469V51.556L74.9023 28.916V42.3446L102.383 58.3258V90.1771L74.9023 106.158Z" fill="url(#paint1_linear_598_6962)"></path></g><path d="M93.1124 84.8459L74.9025 95.389L56.5823 84.8459V63.6486L74.9025 53.1055L93.1124 63.6486V84.8459Z" fill="#002D74"></path></g><mask id="mask1_598_6962" mask-type="alpha" maskUnits="userSpaceOnUse" x="16" y="16" width="118" height="118"><path d="M134 97.2548C134 98.6576 134 100.06 133.992 101.465C133.986 102.646 133.971 103.828 133.938 105.009C133.868 107.581 133.714 110.179 133.251 112.722C132.783 115.306 132.018 117.711 130.806 120.059C129.62 122.365 128.069 124.475 126.218 126.305C124.367 128.135 122.23 129.67 119.898 130.843C117.525 132.038 115.094 132.796 112.48 133.26C109.906 133.717 107.279 133.87 104.676 133.939C99.6703 134 98.2513 134 96.8323 134H69.4699H53.1698C47.7159 133.984 46.521 133.972 45.3262 133.939C42.7226 133.87 40.0964 133.717 37.5216 133.26C34.9078 132.796 32.477 132.038 30.1037 130.843C27.7695 129.67 25.6349 128.135 23.784 126.305C21.9331 124.475 20.3825 122.365 19.1938 120.059C17.9846 117.711 17.2195 115.306 16.7486 112.722C16.2859 110.179 16.1337 107.581 16.0638 105.009C16.0308 103.828 16.0165 102.646 16.0103 101.465C16 100.06 16 98.6576 16 97.2548V81.1409V68.8591V52.7452C16 51.3424 16 49.9376 16.0103 48.5368C16.0165 47.3536 16.0308 46.1724 16.0638 44.9912C16.1337 42.4174 16.2859 39.8212 16.7486 37.2758C17.2195 34.6918 17.9846 32.2887 19.1938 29.9406C20.3825 27.6331 21.9331 25.5228 23.784 23.6951C25.6349 21.8633 27.7695 20.3304 30.1037 19.1573C32.477 17.9619 34.9078 17.2036 37.5216 16.74C40.0964 16.2826 42.7226 16.1301 45.3262 16.061C50.3318 16 51.7508 16 53.1698 16H69.4699H95.6683L80.5301 16.0061L96.8323 16C102.284 16.0163 103.479 16.0285 104.676 16.061C107.279 16.1301 109.906 16.2826 112.48 16.74C115.094 17.2036 117.525 17.9619 119.898 19.1573C122.23 20.3304 124.367 21.8633 126.218 23.6951C128.069 25.5228 129.62 27.6331 130.806 29.9406C132.018 32.2887 132.783 34.6918 133.251 37.2758C133.714 39.8212 133.868 42.4174 133.938 44.9912C133.971 46.1724 133.986 47.3536 133.992 48.5368C134 49.9376 134 51.3424 134 52.7452V68.8591V81.1409V97.2548Z" fill="white"></path></mask><g mask="url(#mask1_598_6962)"><path fill-rule="evenodd" clip-rule="evenodd" d="M80.53 15.7559L96.8315 16.2498C101.784 16.2645 103.221 16.2759 104.34 16.3023C107.259 16.3794 109.874 16.5306 112.437 16.9859C115.026 17.4452 117.435 18.196 119.786 19.3804C122.095 20.5417 124.21 22.0592 126.042 23.8727C127.874 25.6818 129.409 27.7706 130.584 30.0549C131.784 32.3807 132.541 34.7609 133.005 37.3203C133.466 39.8531 133.619 42.4366 133.688 44.9979C133.721 46.1772 133.736 47.3565 133.742 48.538C133.75 49.9383 133.75 51.3427 133.75 52.745V97.2546C133.75 98.6569 133.75 100.059 133.742 101.464C133.736 102.643 133.721 103.822 133.688 105.002C133.619 107.561 133.466 110.146 133.005 112.677C132.541 115.237 131.784 117.619 130.584 119.945C129.409 122.227 127.874 124.316 126.042 126.127C124.21 127.938 122.095 129.458 119.786 130.619C117.435 131.803 115.026 132.554 112.437 133.014C109.874 133.469 107.26 133.62 104.673 133.689C101.209 133.731 99.4628 133.744 98.2463 133.748L96.9415 133.75H53.1705C48.3396 133.735 46.8525 133.724 45.7463 133.699C42.7429 133.62 40.1285 133.469 37.5653 133.014C34.9757 132.554 32.5674 131.804 30.216 130.619C27.9053 129.458 25.792 127.938 23.9597 126.127C22.1276 124.316 20.5926 122.227 19.4161 119.945C18.2183 117.619 17.461 115.237 16.9945 112.677C16.5341 110.146 16.3832 107.561 16.3137 105.002C16.2808 103.822 16.2664 102.643 16.2603 101.463C16.25 100.059 16.25 98.6567 16.25 97.2546V52.745C16.25 51.3428 16.25 49.9386 16.2603 48.5379C16.2664 47.3565 16.2808 46.1772 16.3137 44.9977C16.3832 42.4366 16.5341 39.8531 16.9945 37.3204C17.461 34.761 18.2183 32.3806 19.416 30.0548C20.5927 27.7707 22.1275 25.6819 23.9598 23.8725C25.7921 22.0592 27.9053 20.5417 30.2162 19.3803C32.5674 18.196 34.9757 17.4452 37.5654 16.9859C40.1279 16.5307 42.7416 16.3795 45.3292 16.3107C48.7934 16.2685 50.5392 16.2555 51.7555 16.2515L95.6683 16.2498L80.53 15.7559Z" stroke="black" stroke-opacity="0.06" stroke-width="0.5"></path></g><path d="M83.2222 113.723C83.2222 111.514 85.013 109.723 87.2222 109.723H145.444C147.654 109.723 149.444 111.514 149.444 113.723V136.834C149.444 139.043 147.654 140.834 145.444 140.834H87.2222C85.013 140.834 83.2222 139.043 83.2222 136.834V113.723Z" fill="#1199FA"></path><path d="M95.8254 131.277H101.099C103.605 131.277 105.16 129.983 105.16 127.924V127.908C105.16 126.403 104.029 125.239 102.474 125.117V124.97C103.679 124.791 104.598 123.709 104.598 122.472V122.456C104.598 120.649 103.239 119.534 100.961 119.534H95.8254V131.277ZM100.334 121.357C101.506 121.357 102.181 121.927 102.181 122.879V122.895C102.181 123.864 101.457 124.417 100.13 124.417H98.2831V121.357H100.334ZM100.415 126.036C101.864 126.036 102.653 126.622 102.653 127.713V127.729C102.653 128.844 101.888 129.446 100.472 129.446H98.2831V126.036H100.415ZM107.381 131.277H115.161V129.251H109.839V126.281H114.86V124.393H109.839V121.561H115.161V119.534H107.381V131.277ZM120.598 131.277H123.055V121.561H126.579V119.534H117.074V121.561H120.598V131.277ZM126.644 131.277H129.224L130.095 128.429H134.237L135.108 131.277H137.696L133.61 119.534H130.721L126.644 131.277ZM132.097 121.878H132.243L133.675 126.59H130.656L132.097 121.878Z" fill="white"></path><defs><linearGradient id="paint0_linear_598_6962" x1="55.3452" y1="119.553" x2="55.3452" y2="28.916" gradientUnits="userSpaceOnUse"><stop stop-color="#002D74" stop-opacity="0"></stop><stop offset="1" stop-color="#002D74"></stop></linearGradient><linearGradient id="paint1_linear_598_6962" x1="94.3696" y1="119.553" x2="94.3696" y2="28.916" gradientUnits="userSpaceOnUse"><stop stop-color="#002D74"></stop><stop offset="1" stop-color="#002D74" stop-opacity="0"></stop></linearGradient></defs></svg></svg>